<svg width="267" height="13" viewBox="0 0 267 13" fill="none" xmlns="http://www.w3.org/2000/svg">
<path opacity="0.4" d="M0.506866 6.56897L10.5069 0.795467V12.3425L0.506866 6.56897ZM265.313 7.56897C264.761 7.56897 264.313 7.12125 264.313 6.56897C264.313 6.01668 264.761 5.56897 265.313 5.56897V7.56897ZM257.438 5.56897C257.99 5.56897 258.438 6.01668 258.438 6.56897C258.438 7.12125 257.99 7.56897 257.438 7.56897V5.56897ZM255.469 7.56897C254.917 7.56897 254.469 7.12125 254.469 6.56897C254.469 6.01668 254.917 5.56897 255.469 5.56897V7.56897ZM247.594 5.56897C248.146 5.56897 248.594 6.01668 248.594 6.56897C248.594 7.12125 248.146 7.56897 247.594 7.56897V5.56897ZM245.625 7.56897C245.073 7.56897 244.625 7.12125 244.625 6.56897C244.625 6.01668 245.073 5.56897 245.625 5.56897V7.56897ZM237.75 5.56897C238.302 5.56897 238.75 6.01668 238.75 6.56897C238.75 7.12125 238.302 7.56897 237.75 7.56897V5.56897ZM235.781 7.56897C235.229 7.56897 234.781 7.12125 234.781 6.56897C234.781 6.01668 235.229 5.56897 235.781 5.56897V7.56897ZM227.906 5.56897C228.458 5.56897 228.906 6.01668 228.906 6.56897C228.906 7.12125 228.458 7.56897 227.906 7.56897V5.56897ZM225.937 7.56897C225.385 7.56897 224.937 7.12125 224.937 6.56897C224.937 6.01668 225.385 5.56897 225.937 5.56897V7.56897ZM218.062 5.56897C218.614 5.56897 219.062 6.01668 219.062 6.56897C219.062 7.12125 218.614 7.56897 218.062 7.56897V5.56897ZM216.093 7.56897C215.541 7.56897 215.093 7.12125 215.093 6.56897C215.093 6.01668 215.541 5.56897 216.093 5.56897V7.56897ZM208.218 5.56897C208.77 5.56897 209.218 6.01668 209.218 6.56897C209.218 7.12125 208.77 7.56897 208.218 7.56897V5.56897ZM206.249 7.56897C205.696 7.56897 205.249 7.12125 205.249 6.56897C205.249 6.01668 205.696 5.56897 206.249 5.56897V7.56897ZM198.373 5.56897C198.926 5.56897 199.373 6.01668 199.373 6.56897C199.373 7.12125 198.926 7.56897 198.373 7.56897V5.56897ZM196.405 7.56897C195.852 7.56897 195.405 7.12125 195.405 6.56897C195.405 6.01668 195.852 5.56897 196.405 5.56897V7.56897ZM188.529 5.56897C189.082 5.56897 189.529 6.01668 189.529 6.56897C189.529 7.12125 189.082 7.56897 188.529 7.56897V5.56897ZM186.561 7.56897C186.008 7.56897 185.561 7.12125 185.561 6.56897C185.561 6.01668 186.008 5.56897 186.561 5.56897V7.56897ZM178.685 5.56897C179.238 5.56897 179.685 6.01668 179.685 6.56897C179.685 7.12125 179.238 7.56897 178.685 7.56897V5.56897ZM176.716 7.56897C176.164 7.56897 175.716 7.12125 175.716 6.56897C175.716 6.01668 176.164 5.56897 176.716 5.56897V7.56897ZM168.841 5.56897C169.393 5.56897 169.841 6.01668 169.841 6.56897C169.841 7.12125 169.393 7.56897 168.841 7.56897V5.56897ZM166.872 7.56897C166.32 7.56897 165.872 7.12125 165.872 6.56897C165.872 6.01668 166.32 5.56897 166.872 5.56897V7.56897ZM158.997 5.56897C159.549 5.56897 159.997 6.01668 159.997 6.56897C159.997 7.12125 159.549 7.56897 158.997 7.56897V5.56897ZM157.028 7.56897C156.476 7.56897 156.028 7.12125 156.028 6.56897C156.028 6.01668 156.476 5.56897 157.028 5.56897V7.56897ZM149.153 5.56897C149.705 5.56897 150.153 6.01668 150.153 6.56897C150.153 7.12125 149.705 7.56897 149.153 7.56897V5.56897ZM147.184 7.56897C146.632 7.56897 146.184 7.12125 146.184 6.56897C146.184 6.01668 146.632 5.56897 147.184 5.56897V7.56897ZM139.309 5.56897C139.861 5.56897 140.309 6.01668 140.309 6.56897C140.309 7.12125 139.861 7.56897 139.309 7.56897V5.56897ZM137.34 7.56897C136.788 7.56897 136.34 7.12125 136.34 6.56897C136.34 6.01668 136.788 5.56897 137.34 5.56897V7.56897ZM129.465 5.56897C130.017 5.56897 130.465 6.01668 130.465 6.56897C130.465 7.12125 130.017 7.56897 129.465 7.56897V5.56897ZM127.496 7.56897C126.944 7.56897 126.496 7.12125 126.496 6.56897C126.496 6.01668 126.944 5.56897 127.496 5.56897V7.56897ZM119.621 5.56897C120.173 5.56897 120.621 6.01668 120.621 6.56897C120.621 7.12125 120.173 7.56897 119.621 7.56897V5.56897ZM117.652 7.56897C117.099 7.56897 116.652 7.12125 116.652 6.56897C116.652 6.01668 117.099 5.56897 117.652 5.56897V7.56897ZM109.776 5.56897C110.329 5.56897 110.776 6.01668 110.776 6.56897C110.776 7.12125 110.329 7.56897 109.776 7.56897V5.56897ZM107.808 7.56897C107.255 7.56897 106.808 7.12125 106.808 6.56897C106.808 6.01668 107.255 5.56897 107.808 5.56897V7.56897ZM99.9324 5.56897C100.485 5.56897 100.932 6.01668 100.932 6.56897C100.932 7.12125 100.485 7.56897 99.9324 7.56897V5.56897ZM97.9635 7.56897C97.4113 7.56897 96.9635 7.12125 96.9635 6.56897C96.9635 6.01668 97.4113 5.56897 97.9635 5.56897V7.56897ZM90.0883 5.56897C90.6405 5.56897 91.0883 6.01668 91.0883 6.56897C91.0883 7.12125 90.6405 7.56897 90.0883 7.56897V5.56897ZM88.1194 7.56897C87.5671 7.56897 87.1194 7.12125 87.1194 6.56897C87.1194 6.01668 87.5671 5.56897 88.1194 5.56897V7.56897ZM80.2441 5.56897C80.7964 5.56897 81.2441 6.01668 81.2441 6.56897C81.2441 7.12125 80.7964 7.56897 80.2441 7.56897V5.56897ZM78.2753 7.56897C77.723 7.56897 77.2753 7.12125 77.2753 6.56897C77.2753 6.01668 77.723 5.56897 78.2753 5.56897V7.56897ZM70.4 5.56897C70.9523 5.56897 71.4 6.01668 71.4 6.56897C71.4 7.12125 70.9523 7.56897 70.4 7.56897V5.56897ZM68.4312 7.56897C67.8789 7.56897 67.4312 7.12125 67.4312 6.56897C67.4312 6.01668 67.8789 5.56897 68.4312 5.56897V7.56897ZM60.5559 5.56897C61.1082 5.56897 61.5559 6.01668 61.5559 6.56897C61.5559 7.12125 61.1082 7.56897 60.5559 7.56897V5.56897ZM58.5871 7.56897C58.0348 7.56897 57.5871 7.12125 57.5871 6.56897C57.5871 6.01668 58.0348 5.56897 58.5871 5.56897V7.56897ZM50.7118 5.56897C51.2641 5.56897 51.7118 6.01668 51.7118 6.56897C51.7118 7.12125 51.2641 7.56897 50.7118 7.56897V5.56897ZM48.743 7.56897C48.1907 7.56897 47.743 7.12125 47.743 6.56897C47.743 6.01668 48.1907 5.56897 48.743 5.56897V7.56897ZM40.8677 5.56897C41.42 5.56897 41.8677 6.01668 41.8677 6.56897C41.8677 7.12125 41.42 7.56897 40.8677 7.56897V5.56897ZM38.8988 7.56897C38.3466 7.56897 37.8988 7.12125 37.8988 6.56897C37.8988 6.01668 38.3466 5.56897 38.8988 5.56897V7.56897ZM31.0236 5.56897C31.5759 5.56897 32.0236 6.01668 32.0236 6.56897C32.0236 7.12125 31.5759 7.56897 31.0236 7.56897V5.56897ZM29.0547 7.56897C28.5025 7.56897 28.0547 7.12125 28.0547 6.56897C28.0547 6.01668 28.5025 5.56897 29.0547 5.56897V7.56897ZM21.1794 5.56897C21.7317 5.56897 22.1794 6.01668 22.1794 6.56897C22.1794 7.12125 21.7317 7.56897 21.1794 7.56897V5.56897ZM19.2106 7.56897C18.6583 7.56897 18.2106 7.12125 18.2106 6.56897C18.2106 6.01668 18.6583 5.56897 19.2106 5.56897V7.56897ZM11.3353 5.56897C11.8876 5.56897 12.3353 6.01668 12.3353 6.56897C12.3353 7.12125 11.8876 7.56897 11.3353 7.56897V5.56897ZM9.36652 7.56897C8.81424 7.56897 8.36652 7.12125 8.36652 6.56897C8.36652 6.01668 8.81424 5.56897 9.36652 5.56897V7.56897ZM1.49124 5.56897C2.04352 5.56897 2.49124 6.01668 2.49124 6.56897C2.49124 7.12125 2.04352 7.56897 1.49124 7.56897V5.56897ZM266.298 7.56897H265.313V5.56897H266.298V7.56897ZM257.438 7.56897H255.469V5.56897H257.438V7.56897ZM247.594 7.56897H245.625V5.56897H247.594V7.56897ZM237.75 7.56897H235.781V5.56897H237.75V7.56897ZM227.906 7.56897H225.937V5.56897H227.906V7.56897ZM218.062 7.56897H216.093V5.56897H218.062V7.56897ZM208.218 7.56897H206.249V5.56897H208.218V7.56897ZM198.373 7.56897H196.405V5.56897H198.373V7.56897ZM188.529 7.56897H186.561V5.56897H188.529V7.56897ZM178.685 7.56897H176.716V5.56897H178.685V7.56897ZM168.841 7.56897H166.872V5.56897H168.841V7.56897ZM158.997 7.56897H157.028V5.56897H158.997V7.56897ZM149.153 7.56897H147.184V5.56897H149.153V7.56897ZM139.309 7.56897H137.34V5.56897H139.309V7.56897ZM129.465 7.56897H127.496V5.56897H129.465V7.56897ZM119.621 7.56897H117.652V5.56897H119.621V7.56897ZM109.776 7.56897H107.808V5.56897H109.776V7.56897ZM99.9324 7.56897H97.9635V5.56897H99.9324V7.56897ZM90.0883 7.56897H88.1194V5.56897H90.0883V7.56897ZM80.2441 7.56897H78.2753V5.56897H80.2441V7.56897ZM70.4 7.56897H68.4312V5.56897H70.4V7.56897ZM60.5559 7.56897H58.5871V5.56897H60.5559V7.56897ZM50.7118 7.56897H48.743V5.56897H50.7118V7.56897ZM40.8677 7.56897H38.8988V5.56897H40.8677V7.56897ZM31.0236 7.56897H29.0547V5.56897H31.0236V7.56897ZM21.1794 7.56897H19.2106V5.56897H21.1794V7.56897ZM11.3353 7.56897H9.36652V5.56897H11.3353V7.56897Z" fill="#A08957"/>
</svg>
