<svg width="35" height="35" viewBox="0 0 35 35" fill="none" xmlns="http://www.w3.org/2000/svg">
<g id="Frame 835">
<path id="&#239;&#134;&#172;" d="M12.5781 2.05078V8.20312H10.1172V5.74219H2.73438V27.8906H5.19531V29.1211C5.19531 30.1208 5.5542 30.9796 6.27197 31.6974C7.01538 32.4408 7.88696 32.8125 8.88672 32.8125C9.88647 32.8125 10.7452 32.4408 11.463 31.6974C12.2064 30.9796 12.5781 30.1208 12.5781 29.1211V27.8906H32.2656V8.20312H27.3438V2.05078H12.5781ZM15.0391 4.51172H24.8828V10.6641H15.0391V4.51172ZM5.19531 8.20312H7.65625V25.4297H5.19531V8.20312ZM10.1172 10.6641H12.5781V13.125H27.3438V10.6641H29.8047V25.4297H10.1172V10.6641ZM13.8086 15.5859V18.0469H16.2695V15.5859H13.8086ZM18.7305 15.5859V18.0469H21.1914V15.5859H18.7305ZM23.6523 15.5859V18.0469H26.1133V15.5859H23.6523ZM13.8086 20.5078V22.9688H16.2695V20.5078H13.8086ZM18.7305 20.5078V22.9688H21.1914V20.5078H18.7305ZM23.6523 20.5078V22.9688H26.1133V20.5078H23.6523ZM7.65625 27.8906H10.1172V29.1211C10.1172 29.4543 9.98901 29.7491 9.73267 30.0055C9.50195 30.2362 9.21997 30.3516 8.88672 30.3516C8.55347 30.3516 8.25867 30.2362 8.00232 30.0055C7.77161 29.7491 7.65625 29.4543 7.65625 29.1211V27.8906Z" fill="black"/>
</g>
</svg>
