<svg width="36" height="36" viewBox="0 0 36 36" fill="none" xmlns="http://www.w3.org/2000/svg">
<g id="Frame 831">
<path id="&#239;&#138;&#160;" d="M20.0054 0.530273V2.94082C22.3896 2.94082 24.6233 3.54346 26.7064 4.74873C28.689 5.92889 30.2701 7.51081 31.4497 9.49449C32.6544 11.5786 33.2567 13.8134 33.2567 16.1988H35.666C35.666 13.3614 34.9507 10.7249 33.5202 8.28922C32.1399 5.92889 30.2701 4.05821 27.911 2.67717C25.4766 1.2459 22.8414 0.530273 20.0054 0.530273ZM7.54471 4.14609C6.86709 4.14609 6.27731 4.35953 5.77537 4.78639L1.89787 8.7412L2.0108 8.66587C1.38337 9.19317 0.969272 9.84603 0.768495 10.6244C0.592816 11.4028 0.64301 12.1561 0.919078 12.8843C1.6218 14.8429 2.56294 16.8517 3.7425 18.9107C5.39891 21.7481 7.36903 24.2968 9.65287 26.5566C13.317 30.2478 17.8722 33.1605 23.3182 35.2949H23.3559C24.0837 35.546 24.8115 35.5962 25.5393 35.4455C26.2922 35.2949 26.9573 34.9684 27.5346 34.4662L31.3368 30.6621C31.8387 30.1599 32.0897 29.5447 32.0897 28.8165C32.0897 28.0632 31.8387 27.4355 31.3368 26.9333L26.4052 21.9615C25.9032 21.4593 25.2758 21.2082 24.5229 21.2082C23.77 21.2082 23.1426 21.4593 22.6406 21.9615L20.2689 24.3721C18.3616 23.4681 16.7052 22.3507 15.2997 21.0199C13.8943 19.664 12.7775 18.0193 11.9493 16.0858L14.3586 13.6753C14.8856 13.1229 15.1491 12.47 15.1491 11.7167C15.1491 10.9383 14.848 10.3106 14.2456 9.83347L14.3586 9.94647L9.31406 4.78639C8.81212 4.35953 8.22234 4.14609 7.54471 4.14609ZM20.0054 5.35137V7.76191C21.5363 7.76191 22.9418 8.13856 24.2217 8.89185C25.5268 9.64515 26.5558 10.6747 27.3087 11.9804C28.0616 13.261 28.4381 14.6671 28.4381 16.1988H30.8474C30.8474 14.2403 30.358 12.4198 29.3792 10.7374C28.4004 9.10529 27.0954 7.79958 25.464 6.82029C23.7825 5.84101 21.963 5.35137 20.0054 5.35137ZM7.54471 6.55664C7.62 6.55664 7.70784 6.5943 7.80823 6.66963L12.7398 11.7167C12.7649 11.8172 12.7398 11.905 12.6645 11.9804L9.08819 15.5209L9.3517 16.2742L9.8411 17.3288C10.2427 18.1825 10.7069 19.0111 11.234 19.8146C11.9618 20.9446 12.7649 21.9113 13.6433 22.7148C14.8229 23.8699 16.2409 24.9245 17.8973 25.8787C18.7255 26.3558 19.4282 26.7073 20.0054 26.9333L20.7583 27.2723L24.41 23.6188C24.4602 23.5686 24.4978 23.5435 24.5229 23.5435C24.548 23.5435 24.5856 23.5686 24.6358 23.6188L29.718 28.7035C29.7682 28.7537 29.7933 28.7914 29.7933 28.8165C29.7933 28.8165 29.7682 28.8416 29.718 28.8919L25.9534 32.6207C25.4013 33.0978 24.799 33.2233 24.1464 32.9973C19.0266 31.0136 14.7601 28.3018 11.3469 24.8617C9.23877 22.7525 7.39413 20.3545 5.81301 17.6677C4.68364 15.7343 3.80524 13.8636 3.17782 12.0557V12.018C3.07743 11.792 3.06488 11.5284 3.14017 11.2271C3.21546 10.9006 3.3535 10.6495 3.55427 10.4738L7.28119 6.66963C7.35648 6.5943 7.44432 6.55664 7.54471 6.55664ZM20.0054 10.1725V12.583C21.0093 12.583 21.8626 12.9345 22.5653 13.6376C23.268 14.3407 23.6194 15.1944 23.6194 16.1988H26.0287C26.0287 15.1191 25.7527 14.1147 25.2005 13.1856C24.6735 12.2566 23.9457 11.5284 23.0171 11.0011C22.0885 10.4487 21.0846 10.1725 20.0054 10.1725Z" fill="black"/>
</g>
</svg>
